<?xml version="1.0" standalone="no"?>
<!DOCTYPE svg PUBLIC "-//W3C//DTD SVG 20010904//EN"
 "http://www.w3.org/TR/2001/REC-SVG-20010904/DTD/svg10.dtd">
<svg version="1.0" xmlns="http://www.w3.org/2000/svg"
 width="512.000000pt" height="512.000000pt" viewBox="0 0 512.000000 512.000000"
 preserveAspectRatio="xMidYMid meet">
<metadata>
Created by potrace 1.14, written by Peter Selinger 2001-2017
</metadata>
<g transform="translate(0.000000,512.000000) scale(0.100000,-0.100000)"
fill="#000000" stroke="none">
<path d="M1295 5109 c-491 -62 -928 -376 -1145 -824 -57 -117 -92 -219 -123
-359 l-22 -101 0 -1265 0 -1265 22 -101 c44 -198 121 -383 219 -529 223 -333
543 -548 948 -638 l101 -22 1265 0 1265 0 105 23 c468 103 838 390 1040 807
57 117 92 219 123 359 l22 101 0 1265 0 1265 -22 101 c-80 358 -255 647 -525
863 -222 179 -478 287 -758 321 -105 12 -2413 11 -2515 -1z m3032 -664 c177
-53 189 -303 18 -381 -12 -5 -700 -11 -1650 -14 l-1630 -5 -47 -22 c-63 -29
-144 -106 -176 -168 l-27 -50 0 -1245 0 -1245 22 -48 c32 -68 119 -150 188
-176 56 -21 59 -21 1545 -21 1486 0 1489 0 1545 21 69 26 156 108 188 176 l22
48 0 835 0 835 -28 56 c-30 63 -92 125 -159 161 l-43 23 -1360 5 -1360 5 -50
25 c-54 27 -89 70 -105 131 -23 85 24 190 102 228 l45 21 1389 -2 1389 -3 80
-28 c240 -85 410 -262 487 -507 l23 -75 0 -875 0 -875 -23 -75 c-80 -253 -259
-433 -512 -512 l-75 -23 -1555 0 -1555 0 -75 23 c-250 78 -425 252 -511 507
l-24 70 -3 1255 c-3 1367 -4 1331 53 1472 76 187 269 367 459 428 118 38 135
38 1772 39 1389 1 1597 -1 1641 -14z m-2300 -1560 c278 -113 518 -205 533
-205 15 0 255 92 535 205 280 113 513 204 519 202 6 -3 51 -82 99 -175 l88
-171 -23 -14 c-13 -8 -257 -139 -543 -291 -286 -153 -524 -281 -528 -285 -4
-4 239 -140 540 -300 301 -161 550 -294 551 -296 2 -2 -38 -83 -88 -180 -77
-147 -95 -175 -110 -170 -10 3 -241 96 -512 206 -271 110 -506 201 -523 202
-18 0 -233 -81 -542 -206 -281 -114 -514 -207 -516 -207 -7 0 -189 351 -185
355 2 2 250 135 552 296 481 256 546 294 531 305 -10 7 -256 140 -547 295
-290 155 -530 284 -532 288 -7 10 173 351 185 351 5 0 237 -92 516 -205z
m1748 -489 c59 -27 117 -88 136 -142 18 -52 16 -170 -3 -215 -22 -50 -74 -106
-122 -132 -33 -18 -58 -22 -131 -22 -104 0 -149 18 -205 81 -47 54 -63 99 -64
179 -1 87 16 136 63 188 52 58 120 87 206 87 52 0 83 -6 120 -24z"/>
</g>
</svg>
